<svg width="32" height="32" viewBox="0 0 32 32" fill="none" xmlns="http://www.w3.org/2000/svg">
<path d="M0 8C0 4.22876 0 2.34315 1.17157 1.17157C2.34315 0 4.22876 0 8 0H24C27.7712 0 29.6569 0 30.8284 1.17157C32 2.34315 32 4.22876 32 8V24C32 27.7712 32 29.6569 30.8284 30.8284C29.6569 32 27.7712 32 24 32H8C4.22876 32 2.34315 32 1.17157 30.8284C0 29.6569 0 27.7712 0 24V8Z" fill="#BDBDBD"/>
<path d="M11.1045 21.182C10.7592 21.182 10.4208 21.1237 10.0895 21.007C9.76284 20.8903 9.46651 20.7177 9.20051 20.489L10.1315 19.369C10.2482 19.467 10.3882 19.551 10.5515 19.621C10.7148 19.691 10.8992 19.726 11.1045 19.726C11.3845 19.726 11.6388 19.6537 11.8675 19.509C12.1008 19.3597 12.2875 19.166 12.4275 18.928C12.5675 18.6853 12.6375 18.4263 12.6375 18.151V11.2H14.0935V18.151C14.0935 18.697 13.9582 19.201 13.6875 19.663C13.4168 20.1203 13.0552 20.489 12.6025 20.769C12.1545 21.0443 11.6552 21.182 11.1045 21.182ZM19.8891 21V18.494H15.6961V17.031L19.5391 11.2H21.3451V17.038H22.2411V18.494H21.3451V21H19.8891ZM17.3901 17.031L19.8891 17.038L19.8751 13.209L17.3901 17.031Z" fill="white"/>
</svg>
